<svg xmlns="http://www.w3.org/2000/svg" version="1.1" xmlns:xlink="http://www.w3.org/1999/xlink" xmlns:svgjs="http://svgjs.dev/svgjs" width="128" height="128" viewBox="0 0 128 128"><g transform="matrix(0.8046875,0,0,0.8046875,12.41184074821259,12.814873242367177)"><svg viewBox="0 0 98 98" data-background-color="#ffffff" preserveAspectRatio="xMidYMid meet" height="127" width="128" xmlns="http://www.w3.org/2000/svg" xmlns:xlink="http://www.w3.org/1999/xlink"><g id="tight-bounds" transform="matrix(1,0,0,1,0.08387967645792571,0.08387967645792571)"><svg viewBox="0 0 97.83224064708413 97.83224064708413" height="97.83224064708413" width="97.83224064708413"><g><svg></svg></g><g><svg viewBox="0 0 97.83224064708413 97.83224064708413" height="97.83224064708413" width="97.83224064708413"><g><path d="M0 48.916c0-27.016 21.9-48.916 48.916-48.916 27.016 0 48.916 21.9 48.916 48.916 0 27.016-21.9 48.916-48.916 48.916-27.016 0-48.916-21.9-48.916-48.916zM48.916 93.79c24.783 0 44.874-20.091 44.874-44.874 0-24.783-20.091-44.874-44.874-44.873-24.783 0-44.874 20.091-44.873 44.873 0 24.783 20.091 44.874 44.873 44.874z" data-fill-palette-color="tertiary" fill="#755bb4" stroke="transparent"></path><ellipse rx="46.959475510600384" ry="46.959475510600384" cx="48.91612032354207" cy="48.91612032354207" fill="#755bb4" stroke="transparent" stroke-width="0" fill-opacity="1" data-fill-palette-color="tertiary"></ellipse></g><g transform="matrix(1,0,0,1,23.475393915029336,26.50266570734664)"><svg viewBox="0 0 50.88145281702546 44.826909232390854" height="44.826909232390854" width="50.88145281702546"><g><svg viewBox="0 0 50.88145281702546 44.826909232390854" height="44.826909232390854" width="50.88145281702546"><g><svg viewBox="0 0 50.88145281702546 44.826909232390854" height="44.826909232390854" width="50.88145281702546"><g id="textblocktransform"><svg viewBox="0 0 50.88145281702546 44.826909232390854" height="44.826909232390854" width="50.88145281702546" id="textblock"><g><svg viewBox="0 0 50.88145281702546 44.826909232390854" height="44.826909232390854" width="50.88145281702546"><g><svg viewBox="0 0 50.88145281702546 44.826909232390854" height="44.826909232390854" width="50.88145281702546"><g><svg xmlns="http://www.w3.org/2000/svg" xmlns:xlink="http://www.w3.org/1999/xlink" version="1.1" x="0" y="0" viewBox="6.3 11.5 87.4 77" style="enable-background:new 0 0 100 100;" xml:space="preserve" height="44.826909232390854" width="50.88145281702546" class="icon-icon-0" data-fill-palette-color="quaternary" id="icon-0"><path d="M72.3 12.3L72.3 12.3 72.3 12.3l-0.4-0.8H28.2L6.3 50l21.8 38.5h43.7L93.7 50 72.3 12.3zM33.3 25.3L9.9 47.7l18.6-32.8L33.3 25.3zM70.7 14.8l6.4 35.7L36.9 25.8 70.7 14.8zM35.5 27.3l41 25.2-41 23.3V27.3zM77 54.5l-7.2 30.8-32.6-8.1L77 54.5zM33.5 75L9.9 50.5l23.6-22.7V75zM33.2 77.6l-4.6 7.7L11.5 55.1 33.2 77.6zM35 78.6l31.4 7.9H30.2L35 78.6zM79.3 53.3l11.6-2.5L72.1 84 79.3 53.3zM90.7 48.9l-11.4 2.5-5.9-33.1L90.7 48.9zM35 24.3l-5-10.8h38.2L35 24.3z" fill="#ffffff" data-fill-palette-color="quaternary"></path></svg></g></svg></g></svg></g></svg></g></svg></g><g></g></svg></g></svg></g></svg></g><defs></defs></svg><rect width="97.83224064708413" height="97.83224064708413" fill="none" stroke="none" visibility="hidden"></rect></g></svg></g></svg>